<?xml version="1.0" encoding="UTF-8" standalone="no"?>
<!-- Created with Inkscape (http://www.inkscape.org/) -->

<svg
   width="500"
   height="500"
   viewBox="0 0 132.29166 132.29167"
   version="1.1"
   id="svg5"
   xmlns:inkscape="http://www.inkscape.org/namespaces/inkscape"
   xmlns:sodipodi="http://sodipodi.sourceforge.net/DTD/sodipodi-0.dtd"
   xmlns="http://www.w3.org/2000/svg"
   xmlns:svg="http://www.w3.org/2000/svg">
  <sodipodi:namedview
     id="namedview7"
     pagecolor="#ffffff"
     bordercolor="#999999"
     borderopacity="1"
     inkscape:showpageshadow="0"
     inkscape:pageopacity="0"
     inkscape:pagecheckerboard="true"
     inkscape:deskcolor="#d1d1d1"
     inkscape:document-units="px"
     showgrid="false" />
  <defs
     id="defs2" />
  <g
     inkscape:label="Camada 1"
     inkscape:groupmode="layer"
     id="layer1">
    <rect
       style="fill:#deaa87;stroke:#000000;stroke-width:1.229;stroke-dasharray:none"
       id="rect1465"
       width="128.63156"
       height="128.63156"
       x="1.8300519"
       y="1.8300519" />
    <path
       style="fill:#c83737;stroke:none;stroke-width:1.229;stroke-dasharray:none"
       id="path1937"
       d="m 33.055885,57.203614 c 0.890744,-0.697616 1.802932,-1.368689 2.672231,-2.092851 2.299978,-1.915975 4.840893,-4.266213 6.967363,-6.337416 2.736847,-2.665717 5.754412,-5.779754 8.261209,-8.632219 1.420257,-1.616099 2.758641,-3.302352 4.137962,-4.953529 3.309577,-3.985014 6.444588,-8.115152 9.383318,-12.380937 1.094012,-1.58804 2.110229,-3.187991 3.021843,-4.883614 2.65e-4,-0.05544 0.05072,-0.141561 0.0011,-0.166308 -0.619094,-0.308836 -1.239647,-0.660216 -1.919119,-0.790495 -0.151672,-0.02908 -0.19549,0.23981 -0.280476,0.368754 -0.311701,0.472907 -0.344768,0.677416 -0.401138,1.240099 0.35872,0.56427 0.650134,1.177463 1.076158,1.692812 0.559549,0.67687 1.234747,1.249286 1.863141,1.862774 1.030457,1.006012 2.064919,2.008083 3.113193,2.995514 4.932653,4.646356 3.804497,3.465089 9.063828,8.323861 1.831473,1.691986 3.641969,3.406539 5.462953,5.109808 4.955352,4.627575 10.138103,8.99877 15.274459,13.420833 2.56594,2.209101 5.10757,4.44614 7.66715,6.66256 0.26855,0.218099 0.49983,0.492569 0.80566,0.654301 0.0613,0.03241 0.001,-0.152595 0.0498,-0.20193 0.42175,-0.427228 0.96186,-0.737412 1.33878,-1.204653 0.0608,-0.07539 -0.16557,-0.102642 -0.25584,-0.137755 -0.13372,-0.05201 -0.2978,-0.208227 -0.41269,-0.122288 -0.49994,0.373962 -0.84494,0.919356 -1.26742,1.379032 -0.24722,-0.06352 0.0943,-0.781717 -0.18906,-0.886163 -0.27818,-0.102521 -0.59293,1.5e-4 -0.8894,-0.0011 -0.51693,-0.0021 -1.03393,0.0011 -1.55078,-0.0085 -0.88911,-0.01664 -4.37495,-0.129358 -5.06026,-0.150866 -0.816,-0.03286 -1.631704,-0.07445 -2.448015,-0.09859 -0.659731,-0.0195 -6.331005,-0.135056 -6.937915,-0.146788 -2.544593,-0.04918 -4.373895,-0.10423 -6.899187,-0.05143 -0.859716,0.01797 -1.718278,0.07252 -2.577418,0.108788 -0.21215,1.07042 -2.616292,-0.607687 -2.978538,0.322961 -1.026909,2.638232 0.323434,1.837069 1.195482,2.715882 0.419698,0.42295 0.786302,0.907852 1.070475,1.431568 0.51698,0.952778 0.879438,1.981618 1.319157,2.972427 0.470967,1.312489 1.025496,2.597933 1.412896,3.937471 1.291395,4.465346 1.49878,6.873327 1.924156,11.698761 0.660776,7.495772 0.709258,15.000938 0.792996,22.518482 0.01175,0.97042 0.07488,6.85983 0.118716,8.58456 0.0092,0.36025 -0.296931,1.00471 0.05555,1.07967 0.645189,0.13721 1.926982,-0.0157 1.861233,-0.67205 -0.09927,-0.99098 -1.320737,-1.5178 -2.137667,-2.08747 -1.436476,-1.0017 -3.047124,-1.72699 -4.570685,-2.59049 -2.271673,-0.84935 -4.49743,-1.83343 -6.815016,-2.54804 -4.942247,-1.52392 -10.367478,-2.57933 -15.503474,-3.17519 -3.861004,-0.44793 -7.815255,-0.6354 -11.695965,-0.25332 -1.354306,0.13334 -2.68279,0.45861 -4.024185,0.68792 -1.019577,0.66444 -2.385039,1.044 -1.850358,2.75802 0.600525,1.92508 4.287411,2.46184 5.770102,1.89284 0.948105,-0.36385 1.60896,-1.23952 2.413442,-1.85927 0.699034,-1.25687 1.539946,-2.44474 2.0971,-3.77062 1.268974,-3.019818 2.219058,-7.609439 2.75091,-10.745304 0.635987,-3.749866 1.027563,-7.822745 1.28124,-11.621813 0.10433,-1.562441 0.142703,-3.128592 0.214053,-4.692885 0.06676,-2.720367 0.07998,-5.458156 0.449683,-8.16034 0.04796,-0.350565 0.118179,-0.698093 0.196504,-1.043144 0.035,-0.154201 0.16347,-0.295529 0.142959,-0.452315 -0.0131,-0.100143 -0.112837,0.167539 -0.169254,0.251306 -0.47144,-0.03503 -1.571148,0.340881 -1.414317,-0.105084 0.234289,-0.666224 1.305764,-0.595657 1.827951,-1.071121 0.136099,-0.123918 -0.01974,-0.36817 -0.04735,-0.550148 -0.201654,-1.32892 -0.645331,-1.662859 -1.562473,-2.568837 -0.547229,-0.292187 -1.063873,-0.650812 -1.641689,-0.876559 -1.45415,-0.568124 -4.181956,-1.103207 -5.594014,-1.339313 -2.356654,-0.394047 -6.023141,-0.818079 -8.36068,-1.022673 -1.451104,-0.127008 -2.906463,-0.199559 -4.359693,-0.299339 -3.105245,-0.08983 -3.973184,-0.18701 -6.891451,-0.03323 -0.85336,0.04497 -1.710457,0.08111 -2.554777,0.212905 -0.269383,0.04205 -0.674722,0.04518 -0.759185,0.304414 -0.700611,2.150332 -0.297758,1.932003 0.958094,2.280581 0.999953,0.08243 0.958112,0.107543 1.931551,0.08092 0.883639,-0.02418 1.879335,0.103199 2.298099,-0.908401 0.106339,-0.256879 0.02323,-0.555554 0.03485,-0.833329 0.07558,0.03665 0.148569,0.140705 0.226726,0.109947 0.204568,-0.0805 0.354407,-0.260913 0.5211,-0.404238 0.250534,-0.215408 0.486349,-0.447363 0.729522,-0.671044 0.260472,-0.218091 0.520944,-0.436182 0.781415,-0.654273 0.112522,-0.128513 -1.704943,-1.719802 -1.817462,-1.591288 v 0 c -0.742424,0.664585 -1.879761,1.613344 -2.276121,2.553088 -0.140459,0.333024 -0.136493,0.709862 -0.204739,1.064792 0.192791,-0.623014 0.02397,-0.324194 0.579731,-0.850916 0.03289,-0.06761 -0.149921,-0.01836 -0.222105,-0.03943 -0.02085,-0.0061 -0.03411,-0.02685 -0.05117,-0.04028 -0.292161,-0.0061 -0.584322,-0.01217 -0.87648,-0.01826 -0.320413,0.0013 -0.640607,0.01688 -0.960911,0.02532 -0.945248,0.287007 -1.186784,0.186693 -0.887185,2.039964 0.03685,0.227971 0.450339,0.10282 0.676931,0.147379 0.34146,0.06714 0.681143,0.149053 1.026993,0.187679 1.381871,0.154339 5.508704,0.438438 6.620682,0.519441 3.240688,0.232206 5.451959,0.395404 8.701717,0.60892 3.106933,0.204131 6.254216,0.299963 9.339085,0.762542 0.42536,0.06378 0.84236,0.174448 1.263536,0.261673 0.120518,0.07841 0.856269,0.513403 0.979308,0.726593 0.100624,0.174358 0.105958,0.388435 0.15726,0.583097 0.04982,0.189024 -0.04906,0.556522 0.146085,0.567941 0.278363,0.0163 4.401545,-0.793361 0.344043,-0.762489 -0.188476,0.160864 -0.404299,0.294344 -0.565431,0.482592 -0.826333,0.965396 -1.235519,2.718409 -1.4924,3.87736 -0.540264,2.437458 -0.656744,3.81457 -0.997112,6.38628 -0.638804,5.320236 -1.192072,10.652313 -1.895977,15.964521 -0.499314,3.768196 -0.81796,6.52109 -1.797524,10.134818 -0.286218,1.05589 -0.713682,2.06832 -1.070523,3.10248 -0.518906,0.58786 -0.918268,1.44267 -1.809035,1.50449 -0.430615,0.0299 -0.859536,-0.15422 -1.289614,-0.11742 -0.238564,0.0204 -0.465074,0.14475 -0.659683,0.28423 -0.192468,0.13796 -0.678923,0.4092 -0.474493,0.52871 0.33296,0.19465 0.766157,-0.0895 1.149234,-0.13424 0.6561,0.0126 1.31323,-0.001 1.968304,0.0377 3.811854,0.22588 6.999594,0.55918 10.848755,1.11527 7.383841,1.06673 14.706314,2.54918 21.929619,4.41347 1.574115,0.51568 3.163281,0.98749 4.722347,1.54702 1.314283,0.47169 3.205567,1.73311 4.776777,1.14844 0.492971,-0.18345 0.612042,-0.87439 0.775295,-1.3744 0.926129,-2.83662 1.047186,-5.91597 1.365951,-8.83693 0.07838,-2.4178 0.248256,-4.834383 0.23513,-7.253426 -0.01474,-2.701053 -0.12209,-5.403094 -0.31852,-8.09705 C 91.016483,81.25888 89.980065,74.441253 87.625326,68.005351 87.10482,66.582707 86.409267,65.230364 85.801239,63.84287 c -1.592146,-2.474542 -1.798201,-3.439173 -4.048594,-5.010335 -0.36305,-0.253474 -0.875543,-0.746776 -1.235236,-0.488558 -0.571519,0.410286 -0.578223,1.285224 -0.803103,1.951857 -0.0199,0.05902 0.02835,0.151307 0.08929,0.164164 0.511858,0.10796 1.039067,0.122274 1.5586,0.183411 0.832935,0.05509 1.66493,0.126892 2.498799,0.165264 2.460813,0.113237 4.388043,0.113729 6.868221,0.140814 3.681407,0.04021 7.363965,0.09648 11.044964,-0.0131 2.04838,-0.09658 3.11867,-0.105489 5.09043,-0.340846 1.05095,-0.125445 3.02159,-0.274445 3.67124,-1.346544 0.14942,-0.246589 0.0602,-0.573506 0.0903,-0.860261 -0.44983,0.388651 -0.85742,0.832395 -1.34949,1.165952 -0.0667,0.04522 -0.28931,-0.141882 -0.21879,-0.102872 0.87974,0.486648 0.95127,0.424759 2.26733,-0.781759 0.44386,-0.406914 -0.90749,-1.594541 -0.61427,-1.698811 -0.44592,-0.591063 -0.86696,-1.201748 -1.33776,-1.773192 -1.63394,-1.98324 -3.62172,-4.078552 -5.39229,-5.89234 C 99.250372,44.459736 94.307783,39.824077 89.183944,35.395849 84.08972,31.044681 79.041685,26.653757 73.657705,22.65919 c -1.1811,-0.876301 -2.393384,-1.709875 -3.599601,-2.551265 -0.722674,-0.504098 -1.39801,-1.092345 -2.186799,-1.485007 -0.278773,-0.138774 -0.621181,-0.04495 -0.931773,-0.06743 -0.01889,0.111634 -0.126367,0.245694 -0.05665,0.3349 0.05342,0.06835 0.107117,-0.136719 0.155004,-0.209054 0.05507,-0.08319 0.560538,-0.869957 0.498581,-0.947169 -0.440762,-0.549297 -1.067684,-0.939864 -1.692752,-1.264344 -0.122195,-0.06343 -0.241932,0.131487 -0.362897,0.197231 -1.421275,1.327845 -2.726049,2.79041 -4.022643,4.237825 -3.457215,3.85937 -6.796164,7.823858 -10.070824,11.838699 -1.524326,1.840346 -6.439996,7.806674 -8.048771,9.624718 -3.974711,4.491744 -8.386252,8.577305 -12.311999,13.112451 -0.121822,0.143492 1.907432,1.866297 2.029254,1.722805 z" />
  </g>
</svg>
